<svg xmlns="http://www.w3.org/2000/svg" viewBox="0 0 200 240" width="200" height="240">
  <!-- Fondo blanco -->
  <rect width="200" height="240" fill="white"/>
  
  <!-- Marco del QR -->
  <rect x="20" y="20" width="160" height="160" fill="white" stroke="#14b8a6" stroke-width="3" rx="8"/>
  
  <!-- Patrón QR simulado -->
  <!-- Esquina superior izquierda -->
  <rect x="30" y="30" width="35" height="35" fill="#1e3a5f"/>
  <rect x="35" y="35" width="25" height="25" fill="white"/>
  <rect x="40" y="40" width="15" height="15" fill="#1e3a5f"/>
  
  <!-- Esquina superior derecha -->
  <rect x="135" y="30" width="35" height="35" fill="#1e3a5f"/>
  <rect x="140" y="35" width="25" height="25" fill="white"/>
  <rect x="145" y="40" width="15" height="15" fill="#1e3a5f"/>
  
  <!-- Esquina inferior izquierda -->
  <rect x="30" y="135" width="35" height="35" fill="#1e3a5f"/>
  <rect x="35" y="140" width="25" height="25" fill="white"/>
  <rect x="40" y="145" width="15" height="15" fill="#1e3a5f"/>
  
  <!-- Patrón central simulado -->
  <rect x="75" y="30" width="10" height="10" fill="#1e3a5f"/>
  <rect x="95" y="30" width="10" height="10" fill="#1e3a5f"/>
  <rect x="115" y="30" width="10" height="10" fill="#1e3a5f"/>
  
  <rect x="30" y="75" width="10" height="10" fill="#1e3a5f"/>
  <rect x="50" y="75" width="10" height="10" fill="#1e3a5f"/>
  <rect x="30" y="95" width="10" height="10" fill="#1e3a5f"/>
  <rect x="30" y="115" width="10" height="10" fill="#1e3a5f"/>
  
  <rect x="75" y="50" width="10" height="10" fill="#14b8a6"/>
  <rect x="85" y="60" width="10" height="10" fill="#1e3a5f"/>
  <rect x="95" y="50" width="10" height="10" fill="#1e3a5f"/>
  <rect x="105" y="60" width="10" height="10" fill="#14b8a6"/>
  <rect x="115" y="50" width="10" height="10" fill="#1e3a5f"/>
  
  <rect x="75" y="70" width="10" height="10" fill="#1e3a5f"/>
  <rect x="95" y="70" width="10" height="10" fill="#14b8a6"/>
  <rect x="115" y="70" width="10" height="10" fill="#1e3a5f"/>
  <rect x="85" y="80" width="10" height="10" fill="#1e3a5f"/>
  <rect x="105" y="80" width="10" height="10" fill="#1e3a5f"/>
  
  <rect x="75" y="90" width="10" height="10" fill="#14b8a6"/>
  <rect x="85" y="90" width="10" height="10" fill="#1e3a5f"/>
  <rect x="95" y="90" width="10" height="10" fill="#1e3a5f"/>
  <rect x="105" y="90" width="10" height="10" fill="#14b8a6"/>
  <rect x="115" y="90" width="10" height="10" fill="#1e3a5f"/>
  
  <rect x="75" y="100" width="10" height="10" fill="#1e3a5f"/>
  <rect x="95" y="100" width="10" height="10" fill="#1e3a5f"/>
  <rect x="115" y="100" width="10" height="10" fill="#14b8a6"/>
  
  <rect x="75" y="110" width="10" height="10" fill="#1e3a5f"/>
  <rect x="85" y="110" width="10" height="10" fill="#14b8a6"/>
  <rect x="95" y="110" width="10" height="10" fill="#1e3a5f"/>
  <rect x="105" y="110" width="10" height="10" fill="#1e3a5f"/>
  <rect x="115" y="110" width="10" height="10" fill="#1e3a5f"/>
  
  <rect x="75" y="120" width="10" height="10" fill="#14b8a6"/>
  <rect x="85" y="120" width="10" height="10" fill="#1e3a5f"/>
  <rect x="95" y="120" width="10" height="10" fill="#14b8a6"/>
  <rect x="105" y="120" width="10" height="10" fill="#1e3a5f"/>
  <rect x="115" y="120" width="10" height="10" fill="#1e3a5f"/>
  
  <rect x="75" y="135" width="10" height="10" fill="#1e3a5f"/>
  <rect x="95" y="135" width="10" height="10" fill="#1e3a5f"/>
  <rect x="115" y="145" width="10" height="10" fill="#1e3a5f"/>
  <rect x="135" y="135" width="10" height="10" fill="#1e3a5f"/>
  <rect x="145" y="145" width="10" height="10" fill="#14b8a6"/>
  <rect x="155" y="155" width="10" height="10" fill="#1e3a5f"/>
  <rect x="135" y="155" width="10" height="10" fill="#1e3a5f"/>
  
  <rect x="75" y="145" width="10" height="10" fill="#14b8a6"/>
  <rect x="85" y="155" width="10" height="10" fill="#1e3a5f"/>
  <rect x="95" y="145" width="10" height="10" fill="#1e3a5f"/>
  <rect x="105" y="155" width="10" height="10" fill="#14b8a6"/>
  
  <!-- Pequeño marcador -->
  <rect x="135" y="75" width="15" height="15" fill="#1e3a5f"/>
  <rect x="155" y="75" width="10" height="10" fill="#1e3a5f"/>
  <rect x="135" y="95" width="10" height="10" fill="#14b8a6"/>
  <rect x="150" y="95" width="10" height="10" fill="#1e3a5f"/>
  <rect x="160" y="105" width="10" height="10" fill="#1e3a5f"/>
  <rect x="135" y="115" width="10" height="10" fill="#1e3a5f"/>
  <rect x="150" y="115" width="10" height="10" fill="#14b8a6"/>
  
  <!-- Logo VitaHome en el centro -->
  <circle cx="100" cy="100" r="18" fill="white" stroke="#14b8a6" stroke-width="2"/>
  <path d="M100 88 L88 98 L92 98 L92 108 L98 108 L98 102 L102 102 L102 108 L108 108 L108 98 L112 98 Z" fill="#14b8a6"/>
  <circle cx="100" cy="100" r="3" fill="#1e3a5f"/>
  
  <!-- Texto inferior -->
  <text x="100" y="200" text-anchor="middle" font-family="Arial, sans-serif" font-size="12" font-weight="bold" fill="#1e3a5f">VitaHome</text>
  <text x="100" y="215" text-anchor="middle" font-family="Arial, sans-serif" font-size="9" fill="#666">Escanea para pagar</text>
  <text x="100" y="230" text-anchor="middle" font-family="Arial, sans-serif" font-size="8" fill="#14b8a6">Bancolombia - 123-456789-00</text>
</svg>
